<svg width="27" height="22" viewBox="0 0 27 22" fill="none" xmlns="http://www.w3.org/2000/svg">
<path d="M0 9.5001C0 8.39553 0.895431 7.5001 2 7.5001H3.67157C4.202 7.5001 4.71071 7.28938 5.08579 6.9143L8.58578 3.41427C9.8457 2.15433 12 3.04666 12 4.82847V7.5001V14.5001V16.926C12 18.7412 9.77648 19.6177 8.5379 18.2907L5.59301 15.1355C5.21475 14.7302 4.68526 14.5001 4.1309 14.5001H2C0.89543 14.5001 0 13.6047 0 12.5001V9.5001Z" fill="#C7C7C7"/>
<path d="M15.0001 7C16.9671 10.133 17.0066 11.8581 15.0001 15" stroke="#C7C7C7" stroke-width="2" stroke-linecap="round"/>
<path d="M18.5 4C21.5539 9.16149 21.3038 11.9758 18.5 17" stroke="#C7C7C7" stroke-width="2" stroke-linecap="round"/>
<path d="M22.5001 2C26.2231 8.64678 26.0527 12.3572 22.5001 19" stroke="#C7C7C7" stroke-width="2" stroke-linecap="round"/>
</svg>
